<svg width="1200" height="800" xmlns="http://www.w3.org/2000/svg">
  <rect width="1200" height="800" fill="#1a202c"/>
  <rect x="50" y="50" width="1100" height="700" fill="#2d3748" stroke="#4a5568" stroke-width="2"/>
  <rect x="70" y="70" width="1060" height="60" fill="#4a5568"/>
  <text x="100" y="110" fill="white" font-family="Arial, sans-serif" font-size="24" font-weight="bold">LEGO Catalog</text>
  <rect x="70" y="150" width="200" height="600" fill="#2d3748" stroke="#4a5568" stroke-width="1"/>
  <text x="90" y="180" fill="white" font-family="Arial, sans-serif" font-size="16">Каталог</text>
  <text x="90" y="210" fill="white" font-family="Arial, sans-serif" font-size="16">Коллекция</text>
  <text x="90" y="240" fill="white" font-family="Arial, sans-serif" font-size="16">Инструменты</text>
  <rect x="290" y="150" width="840" height="600" fill="#1a202c"/>
  <text x="310" y="200" fill="white" font-family="Arial, sans-serif" font-size="20">Детали LEGO</text>
  <rect x="310" y="220" width="100" height="100" fill="#e53e3e"/>
  <rect x="430" y="220" width="100" height="100" fill="#38a169"/>
  <rect x="550" y="220" width="100" height="100" fill="#3182ce"/>
  <rect x="670" y="220" width="100" height="100" fill="#d69e2e"/>
  <rect x="790" y="220" width="100" height="100" fill="#805ad5"/>
  <rect x="910" y="220" width="100" height="100" fill="#e53e3e"/>
  <rect x="1030" y="220" width="100" height="100" fill="#38a169"/>
  <text x="310" y="350" fill="#a0aec0" font-family="Arial, sans-serif" font-size="14">Современное веб-приложение для каталогизации</text>
  <text x="310" y="370" fill="#a0aec0" font-family="Arial, sans-serif" font-size="14">вашей личной коллекции LEGO</text>
</svg>
